<?xml version="1.0" encoding="iso-8859-1"?>
<!-- Generator: Adobe Illustrator 19.0.0, SVG Export Plug-In . SVG Version: 6.00 Build 0)  -->
<svg version="1.1" id="Layer_1" xmlns="http://www.w3.org/2000/svg" xmlns:xlink="http://www.w3.org/1999/xlink" x="0px" y="0px"
	 viewBox="0 0 440.982 440.982" style="enable-background:new 0 0 440.982 440.982;" xml:space="preserve">
<g>
	<g>
		<g>
			<path d="M369.735,59.435c-31.962,0-59.074,21.157-68.072,50.201H7.5c-4.142,0-7.5,3.358-7.5,7.5v256.91
				c0,4.142,3.358,7.5,7.5,7.5h391c4.142,0,7.5-3.358,7.5-7.5V191.975c20.922-12.426,34.982-35.244,34.982-61.293
				C440.982,91.397,409.021,59.435,369.735,59.435z M298.763,124.636c-0.169,1.995-0.275,4.008-0.275,6.046
				c0,16.636,5.747,31.946,15.34,44.085L203,263.163L29.312,124.636H298.763z M15,132.409l141.915,113.186L15,358.775V132.409z
				 M29.313,366.547l139.63-111.36l29.381,23.433c1.368,1.091,3.022,1.637,4.676,1.637s3.309-0.545,4.677-1.637l29.38-23.433
				l139.631,111.36H29.313z M391.001,358.775H391L249.085,245.594l75.266-60.032c12.334,10.218,28.154,16.369,45.385,16.369
				c7.404,0,14.546-1.137,21.265-3.243V358.775z M369.735,186.93c-31.015,0-56.247-25.232-56.247-56.247
				c0-31.014,25.232-56.247,56.247-56.247s56.247,25.232,56.247,56.247S400.75,186.93,369.735,186.93z"/>
			<path d="M370.485,90.185c-4.142,0-7.5,3.358-7.5,7.5v10.499h-3c-4.142,0-7.5,3.358-7.5,7.5c0,4.142,3.358,7.5,7.5,7.5h3v40.498
				c0,4.142,3.358,7.5,7.5,7.5c4.142,0,7.5-3.358,7.5-7.5V97.685C377.985,93.542,374.627,90.185,370.485,90.185z"/>
		</g>
	</g>
</g>
<g>
</g>
<g>
</g>
<g>
</g>
<g>
</g>
<g>
</g>
<g>
</g>
<g>
</g>
<g>
</g>
<g>
</g>
<g>
</g>
<g>
</g>
<g>
</g>
<g>
</g>
<g>
</g>
<g>
</g>
</svg>
